<svg width="350" height="160" viewBox="0 0 350 160" fill="none" xmlns="http://www.w3.org/2000/svg">
<rect width="350" height="160" rx="18" fill="#00BCD4" fill-opacity="0.86"/>
<path d="M153.5 134V76.8906H162.875V126.031H187.133V134H153.5ZM224.062 102.984H245.391V131.656C242.396 132.646 239.297 133.414 236.094 133.961C232.891 134.508 229.297 134.781 225.312 134.781C219.505 134.781 214.583 133.635 210.547 131.344C206.536 129.026 203.49 125.68 201.406 121.305C199.323 116.904 198.281 111.604 198.281 105.406C198.281 99.4427 199.44 94.2734 201.758 89.8984C204.076 85.4974 207.448 82.099 211.875 79.7031C216.302 77.2812 221.667 76.0703 227.969 76.0703C231.068 76.0703 234.062 76.3828 236.953 77.0078C239.87 77.6068 242.539 78.4401 244.961 79.5078L241.68 87.2422C239.753 86.3307 237.591 85.5625 235.195 84.9375C232.799 84.3125 230.312 84 227.734 84C223.646 84 220.117 84.8854 217.148 86.6562C214.206 88.4271 211.94 90.9271 210.352 94.1562C208.763 97.3594 207.969 101.148 207.969 105.523C207.969 109.768 208.607 113.492 209.883 116.695C211.159 119.898 213.151 122.398 215.859 124.195C218.594 125.966 222.122 126.852 226.445 126.852C228.607 126.852 230.443 126.734 231.953 126.5C233.464 126.266 234.857 126.005 236.133 125.719V110.992H224.062V102.984ZM313.766 105.367C313.766 109.768 313.206 113.779 312.086 117.398C310.992 120.992 309.339 124.091 307.125 126.695C304.911 129.273 302.138 131.266 298.805 132.672C295.471 134.078 291.565 134.781 287.086 134.781C282.529 134.781 278.57 134.078 275.211 132.672C271.878 131.266 269.104 129.26 266.891 126.656C264.703 124.052 263.062 120.94 261.969 117.32C260.875 113.701 260.328 109.69 260.328 105.289C260.328 99.4036 261.292 94.2734 263.219 89.8984C265.172 85.4974 268.128 82.0859 272.086 79.6641C276.07 77.2161 281.096 75.9922 287.164 75.9922C293.102 75.9922 298.036 77.2031 301.969 79.625C305.901 82.0469 308.844 85.4583 310.797 89.8594C312.776 94.2344 313.766 99.4036 313.766 105.367ZM270.172 105.367C270.172 109.768 270.771 113.583 271.969 116.812C273.167 120.016 275.003 122.49 277.477 124.234C279.977 125.953 283.18 126.812 287.086 126.812C291.018 126.812 294.221 125.953 296.695 124.234C299.169 122.49 300.992 120.016 302.164 116.812C303.336 113.583 303.922 109.768 303.922 105.367C303.922 98.6745 302.581 93.4401 299.898 89.6641C297.242 85.862 292.997 83.9609 287.164 83.9609C283.258 83.9609 280.042 84.8203 277.516 86.5391C275.016 88.2578 273.167 90.7188 271.969 93.9219C270.771 97.099 270.172 100.914 270.172 105.367Z" fill="white"/>
<path d="M76.5002 72.5625L70.5002 88.5H99.0002L97.5002 84.75" stroke="white" stroke-width="4"/>
<path d="M38.5 109L30 131.625H54.5002L64.0002 106.312H105.5" stroke="white" stroke-width="4"/>
<path d="M71 23.8125H98.5L139.5 131.625H115L108.5 113.812" stroke="white" stroke-width="4"/>
<path d="M66.5002 33.1875L41.5002 101.625" stroke="white" stroke-width="4"/>
<path d="M77.5002 67.875L84.5002 50.5312L94.5002 77.25" stroke="white" stroke-width="4"/>
<path d="M50.5 121H41.5L75.6379 31.3125H89.5002" stroke="white" stroke-width="4"/>
<path d="M67.5002 95.0625L65.5002 98.8125H111.5L121.5 124.125H128.5L96.5 41" stroke="white" stroke-width="4"/>
<path d="M84.5002 65.0625L90.5002 81.9375H79.0002" stroke="white" stroke-width="4"/>
<ellipse cx="71" cy="23.8125" rx="3" ry="2.8125" fill="white"/>
<ellipse cx="88.5002" cy="31.3125" rx="3" ry="2.8125" fill="white"/>
<ellipse cx="96" cy="40.8125" rx="3" ry="2.8125" fill="white"/>
<ellipse cx="94.5002" cy="76.3125" rx="3" ry="2.8125" fill="white"/>
<ellipse cx="97.5002" cy="83.8125" rx="3" ry="2.8125" fill="white"/>
<ellipse cx="67" cy="33.8125" rx="3" ry="2.8125" fill="white"/>
<ellipse cx="75.5002" cy="74.4375" rx="3" ry="2.8125" fill="white"/>
<ellipse cx="67.5002" cy="94.125" rx="3" ry="2.8125" fill="white"/>
<ellipse cx="80.5002" cy="81.9375" rx="3" ry="2.8125" fill="white"/>
<ellipse cx="84.5002" cy="66" rx="3" ry="2.8125" fill="white"/>
<ellipse cx="77.5002" cy="66.9375" rx="3" ry="2.8125" fill="white"/>
<ellipse cx="38" cy="109.812" rx="3" ry="2.8125" fill="white"/>
<ellipse cx="42" cy="100.812" rx="3" ry="2.8125" fill="white"/>
<ellipse cx="51" cy="120.812" rx="3" ry="2.8125" fill="white"/>
<ellipse cx="105.5" cy="106.312" rx="3" ry="2.8125" fill="white"/>
<ellipse cx="108.5" cy="114.75" rx="3" ry="2.8125" fill="white"/>
</svg>