<svg width="36" height="32" viewBox="0 0 36 32" fill="none" xmlns="http://www.w3.org/2000/svg">
<path d="M31.6176 4.8H26.4648L25.8648 3C25.5756 2.126 25.018 1.36552 24.2715 0.826875C23.5249 0.288225 22.6274 -0.00113517 21.7068 3.34683e-06H14.2932C13.3728 -0.000699915 12.4757 0.288848 11.7294 0.827454C10.9831 1.36606 10.4257 2.12629 10.1364 3L9.5352 4.8H4.3824C3.22051 4.80127 2.10656 5.2634 1.28498 6.08498C0.463394 6.90657 0.00127053 8.02051 0 9.1824V26.8224C0.00253993 27.9835 0.465224 29.0962 1.28667 29.9167C2.10812 30.7373 3.22134 31.1987 4.3824 31.2H31.6224C32.7835 31.1975 33.8962 30.7348 34.7167 29.9133C35.5373 29.0919 35.9987 27.9787 36 26.8176V9.1776C35.9975 8.01654 35.5348 6.90383 34.7133 6.08328C33.8919 5.26273 32.7787 4.80127 31.6176 4.8ZM33.6 26.8176C33.5994 27.3432 33.3903 27.847 33.0187 28.2187C32.647 28.5903 32.1432 28.7994 31.6176 28.8H4.3824C3.85683 28.7994 3.35297 28.5903 2.98133 28.2187C2.6097 27.847 2.40064 27.3432 2.4 26.8176V9.1776C2.4019 8.65287 2.61153 8.15023 2.98302 7.77964C3.35452 7.40904 3.85766 7.20063 4.3824 7.2H10.4004C10.6522 7.19981 10.8975 7.12045 11.1016 6.97314C11.3058 6.82584 11.4584 6.61806 11.538 6.3792L12.4128 3.7548C12.5442 3.36006 12.7965 3.01673 13.1341 2.77353C13.4716 2.53034 13.8772 2.39965 14.2932 2.4H21.7068C22.123 2.39955 22.5288 2.53035 22.8664 2.77379C23.204 3.01724 23.4562 3.36094 23.5872 3.756L24.462 6.3792C24.5416 6.61806 24.6942 6.82584 24.8984 6.97314C25.1025 7.12045 25.3478 7.19981 25.5996 7.2H31.6176C32.1432 7.20064 32.647 7.4097 33.0187 7.78134C33.3903 8.15297 33.5994 8.65683 33.6 9.1824V26.8176Z" fill="#24C5DA"/>
<path d="M18 8.39996C16.22 8.39996 14.4799 8.9278 12.9999 9.91674C11.5198 10.9057 10.3663 12.3113 9.68509 13.9558C9.0039 15.6003 8.82567 17.4099 9.17294 19.1558C9.5202 20.9016 10.3774 22.5053 11.636 23.7639C12.8947 25.0226 14.4984 25.8798 16.2442 26.227C17.99 26.5743 19.7996 26.3961 21.4442 25.7149C23.0887 25.0337 24.4943 23.8801 25.4832 22.4001C26.4722 20.9201 27 19.18 27 17.4C26.9975 15.0138 26.0484 12.7261 24.3612 11.0388C22.6739 9.35153 20.3862 8.4025 18 8.39996ZM18 24C16.6946 24 15.4186 23.6129 14.3332 22.8877C13.2479 22.1624 12.4019 21.1317 11.9024 19.9257C11.4029 18.7197 11.2722 17.3926 11.5268 16.1124C11.7815 14.8321 12.4101 13.6561 13.3331 12.7331C14.2561 11.81 15.4321 11.1814 16.7124 10.9268C17.9927 10.6721 19.3197 10.8028 20.5257 11.3024C21.7317 11.8019 22.7625 12.6478 23.4877 13.7332C24.2129 14.8186 24.6 16.0946 24.6 17.4C24.5981 19.1498 23.9021 20.8274 22.6648 22.0648C21.4275 23.3021 19.7498 23.9981 18 24Z" fill="#24C5DA"/>
<path d="M29.9988 12.0001C30.6616 12.0001 31.1988 11.4628 31.1988 10.8001C31.1988 10.1374 30.6616 9.6001 29.9988 9.6001C29.3361 9.6001 28.7988 10.1374 28.7988 10.8001C28.7988 11.4628 29.3361 12.0001 29.9988 12.0001Z" fill="#24C5DA"/>
</svg>
