<svg width="13" height="16" viewBox="0 0 13 16" fill="none" xmlns="http://www.w3.org/2000/svg">
<path fill-rule="evenodd" clip-rule="evenodd" d="M1.09638 13.9672V4.77827C0.404798 4.59471 -0.0433368 3.92658 0.0491748 3.21694C0.141832 2.50744 0.74629 1.9767 1.46191 1.97655H3.37144V1.51035C3.36925 1.11831 3.52426 0.74185 3.8018 0.464897C4.07933 0.188091 4.45637 0.0339533 4.84842 0.0371584H8.16019C8.55223 0.0339533 8.92927 0.188091 9.20681 0.464897C9.48434 0.74185 9.63935 1.11831 9.63717 1.51035V1.97655H11.5467C12.2623 1.9767 12.8668 2.50744 12.9594 3.21694C13.0519 3.92658 12.6038 4.59471 11.9122 4.77827V13.9672C11.9122 14.5104 11.7131 15.0204 11.3652 15.3864C11.019 15.7534 10.5371 15.9617 10.0326 15.9626H2.97604C2.47167 15.9617 1.98973 15.7534 1.64343 15.3864C1.29553 15.0204 1.09638 14.5104 1.09638 13.9672ZM2.97604 15.2166H10.0326C10.6702 15.2166 11.1663 14.6689 11.1663 13.9672V4.81105H1.8423V13.9672C1.8423 14.6689 2.33836 15.2166 2.97604 15.2166ZM4.11736 1.51035C4.11488 1.31615 4.19122 1.12923 4.32904 0.992141C4.46672 0.855049 4.65407 0.779728 4.84842 0.783079H8.16019C8.35454 0.779728 8.54189 0.855049 8.67957 0.992141C8.81739 1.12909 8.89373 1.31615 8.89125 1.51035V1.97655H4.11736V1.51035ZM11.5467 2.72247H1.46191C1.09113 2.72247 0.790579 3.02303 0.790579 3.3938C0.790579 3.76458 1.09113 4.06513 1.46191 4.06513H11.5467C11.9175 4.06513 12.218 3.76458 12.218 3.3938C12.218 3.02303 11.9175 2.72247 11.5467 2.72247Z" fill="#24C5DA"/>
</svg>
