<svg width="27" height="27" viewBox="0 0 27 27" fill="none" xmlns="http://www.w3.org/2000/svg">
<path d="M5.37488 22.875C8.29154 21.625 10.1665 20.5833 10.9999 19.75C12.2499 18.5 8.49988 18.5 8.49988 12.25C8.49988 8.08333 10.1665 6 13.4999 6C16.8332 6 18.4999 8.08333 18.4999 12.25C18.4999 18.5 14.7499 18.5 15.9999 19.75C16.8332 20.5833 18.7082 21.625 21.6249 22.875" stroke="#501C54" stroke-width="1.3" stroke-linecap="square" stroke-linejoin="round"/>
<path d="M13.5 26C20.4036 26 26 20.4036 26 13.5C26 6.59644 20.4036 1 13.5 1C6.59644 1 1 6.59644 1 13.5C1 20.4036 6.59644 26 13.5 26Z" stroke="#501C54" stroke-width="1.3" stroke-linecap="square" stroke-linejoin="round"/>
</svg>
