<svg xmlns="http://www.w3.org/2000/svg" width="36" height="36" viewBox="0 0 36 36"><path style="text-indent:0;text-align:start;line-height:normal;text-transform:none;block-progression:tb" d="m 8.0234375,7 c -0.8338499,0 -1.5531822,0.5138559 -1.859375,1.2402344 -0.00399,0.00939 -0.00591,0.019833 -0.00977,0.029297 -0.0445,0.1102553 -0.082942,0.2231001 -0.1074219,0.3417969 -0.027273,0.1309813 -0.041016,0.2675335 -0.041016,0.40625 l 0,6.4804689 c -2.8439963,1.065938 -4.8652344,3.808816 -4.8652344,7.019531 0,4.132 3.3373655,7.5 7.4804688,7.5 1.9644232,0 3.7515522,-0.763181 5.0937502,-2 l 18.291015,0 c 1.099271,0 2,-0.9007 2,-2 l 0,-6.49414 0,-5.998047 0,-4.5078129 c 0,-1.0993 -0.900689,-2 -2,-2 l -1.84375,0 C 30.103781,7.012439 30.047876,7 29.988281,7 z m -0.017578,1.0175781 22.0722656,0 c 0.525715,0.046236 0.927734,0.4599966 0.927734,1 l 0,4.9570309 c -0.173386,0.01618 -0.331888,0.04297 -0.52539,0.04297 l -4.97461,0 c -1.930351,0 -3.5,1.5697 -3.5,3.5 0,1.9304 1.569649,3.5 3.5,3.5 l 4.962891,0 0.03125,0 0.0059,0 c 0.0013,5e-6 0.0026,5e-6 0.0039,0 l 0.002,0 c 0.04833,-8.67e-4 0.09652,-0.0088 0.142578,-0.02344 0.0013,5e-6 0.0026,5e-6 0.0039,0 0.125081,-0.0037 0.228557,-0.02776 0.347656,-0.03711 l 0,5.027344 C 31.005859,26.556675 30.560475,27 29.988281,27 l -15.351562,0 c 0.941578,-1.252258 1.505859,-2.800797 1.505859,-4.482422 -8.16e-4,-0.06423 -0.01416,-0.128285 -0.03906,-0.1875 -0.106304,-4.0426 -3.406934,-7.3125 -7.4824222,-7.3125 -0.5553335,0 -1.0949504,0.0649 -1.6152344,0.179688 l 0,-6.1796879 c 0,-0.140625 0.028326,-0.2763672 0.078125,-0.3964843 0.1499987,-0.3589569 0.5009477,-0.6035157 0.921875,-0.6035157 z m 23.7226566,0 0.277343,0 c 0.56257,0 1,0.4375 1,1 l 0,4.2597659 c -0.22356,0.184472 -0.553678,0.365453 -1,0.507812 l 0,-4.7675779 c 0,-0.3646734 -0.105995,-0.703828 -0.277343,-1 z m -23.7226566,1 0,0.9999999 1,0 0,-0.9999999 z m 1.9999996,0 0,0.9999999 1,0 0,-0.9999999 z m 2,0 0,0.9999999 1,0 0,-0.9999999 z m 2,0 0,0.9999999 1,0 0,-0.9999999 z m 2,0 0,0.9999999 1,0 0,-0.9999999 z m 2,0 0,0.9999999 1,0 0,-0.9999999 z m 2,0 0,0.9999999 1,0 0,-0.9999999 z m 2,0 0,0.9999999 1,0 0,-0.9999999 z m 2,0 0,0.9999999 1,0 0,-0.9999999 z m 2,0 0,0.9999999 1,0 0,-0.9999999 z m 2,0 0,0.9999999 1,0 0,-0.9999999 z m -19.9824215,1.9980469 -0.00391,1 1,0.0098 0.00391,-1 z m 19.9882815,1.003906 0,1.007813 0.99414,0 0,-1.007813 z m -19.9980471,0.996094 -0.00586,1 1,0.0098 0.00586,-1 z m 24.9921871,1.380859 0,4.859375 c -0.417479,0.3562 -1.205933,0.752219 -2.5,0.761719 l -0.0039,0 -0.0332,0 -4.962891,0 c -1.393648,0 -2.5,-1.1063 -2.5,-2.5 0,-1.3936 1.106352,-2.5 2.5,-2.5 l 4.97461,0 c 1.10124,0 1.885486,-0.275494 2.52539,-0.621094 z M 8.6210938,16.017578 c 3.6020652,0 6.5214842,2.9093 6.5214842,6.5 0,3.5924 -2.919401,6.5 -6.5214842,6.5 -3.6032169,0 -6.4804688,-2.904 -6.4804688,-6.5 0,-3.5943 2.8772692,-6.5 6.4804688,-6.5 z m 16.9687502,0 c -0.868837,0 -1.584024,0.717038 -1.583985,1.585938 4.1e-5,0.8689 0.715204,1.583984 1.583985,1.583984 0.868781,0 1.581991,-0.715084 1.582031,-1.583984 4e-5,-0.8689 -0.713195,-1.585938 -1.582031,-1.585938 z m 0,1 c 0.327825,0 0.582046,0.257038 0.582031,0.585938 -1.5e-5,0.329 -0.254228,0.583984 -0.582031,0.583984 -0.327803,0 -0.583969,-0.254984 -0.583985,-0.583984 -1.5e-5,-0.3289 0.256159,-0.585938 0.583985,-0.585938 z m -16.9550784,1 c -0.2618012,0.0041 -0.4962842,0.246012 -0.4921875,0.507813 l 0,0.541015 c -0.9649092,0.210052 -1.75,0.910798 -1.75,1.894532 0,1.1628 1.0428695,2.054687 2.25,2.054687 0.7300771,0 1.2480469,0.493634 1.2480469,1.052734 0,0.5588 -0.5180042,1.054688 -1.2480469,1.054688 -0.7300551,0 -1.25,-0.495888 -1.25,-1.054688 0.00373,-0.264156 -0.235818,-0.507119 -0.5,-0.507119 -0.264182,0 -0.5037347,0.242963 -0.5,0.507119 0,0.997691 0.7693618,1.791533 1.75,1.998047 l 0,0.445313 c -0.00373,0.264156 0.235818,0.507119 0.5,0.507119 0.264182,0 0.5037347,-0.242963 0.5,-0.507119 l 0,-0.546875 c 0.9648899,-0.209995 1.7480469,-0.912729 1.7480469,-1.896485 0,-1.161827 -0.8906252,-2.068358 -2.2480469,-2.052734 -0.7300895,0 -1.25,-0.495788 -1.25,-1.054687 0,-0.551452 0.5080811,-1.037653 1.2226563,-1.050782 0.018823,0.0017 0.037744,0.0024 0.056641,0.002 0.7132439,0.01418 1.21875,0.497993 1.21875,1.048829 -0.00373,0.264156 0.235818,0.507119 0.5,0.507119 0.264182,0 0.503735,-0.242963 0.5,-0.507119 0,-0.997862 -0.767835,-1.793524 -1.7480469,-2 l 0,-0.435547 C 9.1467565,18.258382 8.9017747,18.0134 8.6347656,18.017578 z m 24.3710934,2.431641 0,5.568359 c 0,0.5627 -0.43739,1 -1,1 l -0.296875,0 c 0.183956,-0.303604 0.296875,-0.65426 0.296875,-1.033203 l 0,-5.179687 c 0.378183,-0.09157 0.710255,-0.211028 1,-0.355469 z m -5,2.072265 -0.002,0.996094 1.009766,0 0,-0.996094 z m -12.0625,2.496094 0,1 1,0 0,-1 z m 2,0 0,1 1,0 0,-1 z m 2,0 0,1 1,0 0,-1 z m 2,0 0,1 1,0 0,-1 z m 2,0 0,1 1,0 0,-1 z m 2,0 0,1 1,0 0,-1 z m 2,0 0,1 1,0 0,-1 z" color="#000" enable-background="accumulate" font-family="sans-serif" font-weight="400" overflow="visible"/></svg>