<svg width="16" height="16" viewBox="0 0 16 16" fill="none" xmlns="http://www.w3.org/2000/svg">
<path fill-rule="evenodd" clip-rule="evenodd" d="M9.96928 1.03564C11.3466 -0.345213 13.5864 -0.345213 14.9636 1.03564C15.6318 1.7005 16 2.58697 16 3.5314C16 4.47584 15.6318 5.36231 14.9636 6.03058L5.80676 15.1851C5.72153 15.2738 5.60221 15.3215 5.4829 15.3215L0.519231 15.9966C0.498776 16 0.478322 16 0.457867 16C0.338548 16 0.219229 15.9489 0.134002 15.8636C0.0351373 15.7647 -0.0159993 15.6215 0.00445533 15.4783L0.682868 10.4527C0.696505 10.3538 0.740823 10.2618 0.812414 10.1902L9.96928 1.03564ZM4.49884 14.5249L1.47037 11.496L0.996506 15.001L4.49884 14.5249ZM11.6841 3.69847L10.1466 2.16078L1.79083 10.5175L3.32834 12.0552L11.6841 3.69847ZM5.4863 14.21L3.98289 12.7064L12.3386 4.34969L13.842 5.85328L5.4863 14.21ZM10.8045 1.51638L14.4829 5.19525C14.8682 4.72814 15.0795 4.14853 15.0795 3.5314C15.0795 2.83245 14.8102 2.17442 14.3159 1.68345C13.8216 1.19248 13.167 0.919717 12.4682 0.919717C11.8545 0.919717 11.2716 1.13111 10.8045 1.51638Z" fill="#24C5DA"/>
</svg>
