<svg width="17" height="21" viewBox="0 0 17 21" fill="none" xmlns="http://www.w3.org/2000/svg">
<path d="M14.2058 2.47058H12.2467C11.9917 1.75174 11.3051 1.23527 10.5 1.23527H9.77649C9.52157 0.516305 8.83464 0 8.02938 0C7.22412 0 6.53719 0.516305 6.28228 1.23531H5.55881C4.75359 1.23531 4.06707 1.75174 3.81212 2.47062H1.85292C0.831223 2.47062 0 3.30184 0 4.32354V19.1471C0 20.1688 0.831223 21 1.85292 21H14.2059C15.2276 21 16.0588 20.1688 16.0588 19.1471V4.32354C16.0588 3.3018 15.2276 2.47058 14.2058 2.47058ZM4.94115 3.08823C4.94115 2.74768 5.21821 2.47058 5.55881 2.47058H6.79412C7.1352 2.47058 7.41177 2.19405 7.41177 1.85292C7.41177 1.51237 7.68883 1.23527 8.02942 1.23527C8.36998 1.23527 8.64708 1.51233 8.64708 1.85292C8.64708 2.19405 8.92361 2.47058 9.26473 2.47058H10.5C10.8406 2.47058 11.1177 2.74764 11.1177 3.08823V3.70588H4.94115V3.08823ZM14.8235 19.1471C14.8235 19.4876 14.5464 19.7647 14.2058 19.7647H1.85292C1.51237 19.7647 1.23527 19.4877 1.23527 19.1471V4.32354C1.23527 3.98299 1.51233 3.70588 1.85292 3.70588H3.70588V4.32354C3.70588 4.66467 3.98241 4.94119 4.32354 4.94119H11.7353C12.0764 4.94119 12.353 4.66467 12.353 4.32354V3.70588H14.2059C14.5464 3.70588 14.8235 3.98295 14.8235 4.32354V19.1471H14.8235Z" fill="#24C6DA"/>
<path d="M6.1771 7.41187H3.70652C3.36544 7.41187 3.08887 7.68839 3.08887 8.02952C3.08887 8.37065 3.36539 8.64717 3.70652 8.64717H6.1771C6.51818 8.64717 6.79475 8.37065 6.79475 8.02952C6.79475 7.68839 6.51818 7.41187 6.1771 7.41187Z" fill="#24C6DA"/>
<path d="M6.1771 11.7354H3.70652C3.36544 11.7354 3.08887 12.0119 3.08887 12.353C3.08887 12.6941 3.36539 12.9707 3.70652 12.9707H6.1771C6.51818 12.9707 6.79475 12.6941 6.79475 12.353C6.79471 12.0119 6.51818 11.7354 6.1771 11.7354Z" fill="#24C6DA"/>
<path d="M6.1771 16.0591H3.70652C3.36544 16.0591 3.08887 16.3356 3.08887 16.6767C3.08887 17.0179 3.36539 17.2944 3.70652 17.2944H6.1771C6.51818 17.2944 6.79475 17.0179 6.79475 16.6767C6.79475 16.3356 6.51818 16.0591 6.1771 16.0591Z" fill="#24C6DA"/>
<path d="M12.7891 6.97485C12.5479 6.73364 12.1568 6.73364 11.9157 6.97489L10.4994 8.39108L9.70086 7.59255C9.45969 7.35133 9.06861 7.35133 8.82739 7.59255C8.58618 7.83376 8.58618 8.2248 8.82739 8.46601L10.0627 9.70132C10.1833 9.82191 10.3414 9.8822 10.4995 9.8822C10.6576 9.8822 10.8156 9.82191 10.9362 9.70128L12.7892 7.84836C13.0303 7.60715 13.0303 7.21606 12.7891 6.97485Z" fill="#24C6DA"/>
<path d="M12.7891 10.6809C12.5479 10.4397 12.1568 10.4397 11.9157 10.6809L10.4994 12.0971L9.70086 11.2986C9.45969 11.0574 9.06861 11.0574 8.82739 11.2986C8.58618 11.5398 8.58618 11.9309 8.82739 12.1721L10.0627 13.4074C10.1833 13.528 10.3414 13.5883 10.4995 13.5883C10.6576 13.5883 10.8156 13.528 10.9362 13.4073L12.7892 11.5544C13.0303 11.3132 13.0303 10.9221 12.7891 10.6809Z" fill="#24C6DA"/>
<path d="M11.3729 16.6764L12.1715 15.8779C12.4127 15.6367 12.4127 15.2456 12.1714 15.0044C11.9303 14.7632 11.5392 14.7632 11.298 15.0044L10.4994 15.803L9.70086 15.0044C9.45969 14.7632 9.06861 14.7632 8.82739 15.0044C8.58618 15.2456 8.58618 15.6367 8.82739 15.8779L9.62597 16.6764L8.82739 17.475C8.58618 17.7162 8.58618 18.1073 8.82739 18.3485C8.94798 18.4691 9.1061 18.5294 9.26417 18.5294C9.42224 18.5294 9.58032 18.4691 9.7009 18.3484L10.4995 17.5499L11.2981 18.3485C11.4186 18.4691 11.5767 18.5294 11.7348 18.5294C11.8929 18.5294 12.0509 18.4691 12.1715 18.3484C12.4127 18.1072 12.4127 17.7162 12.1715 17.475L11.3729 16.6764Z" fill="#24C6DA"/>
</svg>
