<svg width="17" height="17" viewBox="0 0 17 17" fill="none" xmlns="http://www.w3.org/2000/svg">
<path d="M3.61686 10.1821L3.04878 12.3028L0.972474 12.3468C0.351964 11.1959 0 9.87907 0 8.47976C0 7.12663 0.329077 5.85061 0.91239 4.72705H0.912836L2.76133 5.06595L3.57108 6.90335C3.4016 7.39744 3.30923 7.92784 3.30923 8.47976C3.30929 9.07875 3.4178 9.65266 3.61686 10.1821Z" fill="#FBBB00"/>
<path d="M16.1774 6.95532C16.2711 7.44894 16.32 7.95872 16.32 8.47971C16.32 9.06392 16.2585 9.63378 16.1415 10.1835C15.7443 12.054 14.7064 13.6873 13.2685 14.8432L13.2681 14.8427L10.9398 14.7239L10.6103 12.6669C11.5643 12.1073 12.31 11.2317 12.7027 10.1835H8.33936V6.95532H12.7664H16.1774Z" fill="#518EF8"/>
<path d="M13.268 14.8427L13.2684 14.8432C11.8701 15.9672 10.0937 16.6397 8.15994 16.6397C5.05241 16.6397 2.35066 14.9028 0.972412 12.3468L3.61679 10.1821C4.3059 12.0213 6.08003 13.3305 8.15994 13.3305C9.05394 13.3305 9.89148 13.0888 10.6102 12.6669L13.268 14.8427Z" fill="#28B446"/>
<path d="M13.3685 2.19841L10.725 4.36259C9.98117 3.89767 9.10193 3.62909 8.15996 3.62909C6.03298 3.62909 4.22566 4.99834 3.57108 6.90341L0.9128 4.72712H0.912354C2.27042 2.10874 5.00625 0.319824 8.15996 0.319824C10.1399 0.319824 11.9553 1.02509 13.3685 2.19841Z" fill="#F14336"/>
</svg>
