<svg width="22" height="22" viewBox="0 0 22 22" fill="none" xmlns="http://www.w3.org/2000/svg">
<path d="M8.98576 1.74526C8.98576 1.95939 8.9007 2.16475 8.74928 2.31617C8.59787 2.46758 8.39251 2.55264 8.17837 2.55264H3.33406C3.11993 2.55264 2.91457 2.63771 2.76316 2.78912C2.61174 2.94054 2.52668 3.1459 2.52668 3.36003C2.52668 3.57416 2.44161 3.77952 2.2902 3.93094C2.13879 4.08235 1.93343 4.16741 1.71929 4.16741C1.50516 4.16741 1.2998 4.08235 1.14839 3.93094C0.996972 3.77952 0.911908 3.57416 0.911908 3.36003C0.911908 2.71763 1.1671 2.10155 1.62134 1.64731C2.07558 1.19306 2.69167 0.937874 3.33406 0.937874H8.17837C8.39251 0.937874 8.59787 1.02294 8.74928 1.17435C8.9007 1.32577 8.98576 1.53113 8.98576 1.74526ZM21.0965 13.856C20.8824 13.856 20.677 13.9411 20.5256 14.0925C20.3742 14.2439 20.2892 14.4493 20.2892 14.6634V19.5077C20.2892 19.7219 20.2041 19.9272 20.0527 20.0786C19.9013 20.2301 19.6959 20.3151 19.4818 20.3151H14.6375C14.4233 20.3151 14.218 20.4002 14.0665 20.5516C13.9151 20.703 13.8301 20.9084 13.8301 21.1225C13.8301 21.3366 13.9151 21.542 14.0665 21.6934C14.218 21.8448 14.4233 21.9299 14.6375 21.9299H19.4818C20.1242 21.9299 20.7402 21.6747 21.1945 21.2205C21.6487 20.7662 21.9039 20.1501 21.9039 19.5077V14.6634C21.9039 14.4493 21.8189 14.2439 21.6674 14.0925C21.516 13.9411 21.3107 13.856 21.0965 13.856ZM21.0965 7.39696H16.5833L21.6698 2.3185C21.8218 2.16647 21.9072 1.96027 21.9072 1.74526C21.9072 1.53025 21.8218 1.32405 21.6698 1.17202C21.5177 1.01998 21.3115 0.93457 21.0965 0.93457C20.8815 0.93457 20.6753 1.01998 20.5233 1.17202L15.4448 6.25854V1.74526C15.4448 1.53113 15.3598 1.32577 15.2084 1.17435C15.057 1.02294 14.8516 0.937874 14.6375 0.937874C14.4233 0.937874 14.218 1.02294 14.0665 1.17435C13.9151 1.32577 13.8301 1.53113 13.8301 1.74526V8.20434C13.8301 8.41847 13.9151 8.62383 14.0665 8.77525C14.218 8.92666 14.4233 9.01173 14.6375 9.01173H21.0965C21.3107 9.01173 21.516 8.92666 21.6674 8.77525C21.8189 8.62383 21.9039 8.41847 21.9039 8.20434C21.9039 7.99021 21.8189 7.78485 21.6674 7.63343C21.516 7.48202 21.3107 7.39696 21.0965 7.39696ZM8.17837 13.856H1.71929C1.50516 13.856 1.2998 13.9411 1.14839 14.0925C0.996972 14.2439 0.911908 14.4493 0.911908 14.6634C0.911908 14.8776 0.996972 15.0829 1.14839 15.2343C1.2998 15.3857 1.50516 15.4708 1.71929 15.4708H6.23258L1.14605 20.5493C1.07037 20.6243 1.01031 20.7136 0.96932 20.812C0.92833 20.9104 0.907227 21.0159 0.907227 21.1225C0.907227 21.2291 0.92833 21.3346 0.96932 21.433C1.01031 21.5314 1.07037 21.6207 1.14605 21.6957C1.22111 21.7714 1.3104 21.8315 1.40879 21.8725C1.50718 21.9135 1.61271 21.9346 1.71929 21.9346C1.82588 21.9346 1.93141 21.9135 2.02979 21.8725C2.12818 21.8315 2.21748 21.7714 2.29254 21.6957L7.37099 16.6092V21.1225C7.37099 21.3366 7.45605 21.542 7.60747 21.6934C7.75888 21.8448 7.96424 21.9299 8.17837 21.9299C8.39251 21.9299 8.59787 21.8448 8.74928 21.6934C8.9007 21.542 8.98576 21.3366 8.98576 21.1225V14.6634C8.98576 14.4493 8.9007 14.2439 8.74928 14.0925C8.59787 13.9411 8.39251 13.856 8.17837 13.856ZM1.71929 9.01173C1.87898 9.01173 2.03508 8.96437 2.16785 8.87566C2.30063 8.78694 2.40411 8.66084 2.46522 8.51331C2.52633 8.36578 2.54232 8.20345 2.51116 8.04683C2.48001 7.89021 2.40312 7.74635 2.2902 7.63343C2.17729 7.52052 2.03342 7.44362 1.87681 7.41247C1.72019 7.38132 1.55785 7.3973 1.41032 7.45841C1.26279 7.51952 1.13669 7.62301 1.04798 7.75578C0.95926 7.88855 0.911908 8.04465 0.911908 8.20434C0.911908 8.41847 0.996972 8.62383 1.14839 8.77525C1.2998 8.92666 1.50516 9.01173 1.71929 9.01173ZM1.71929 6.58957C1.87898 6.58957 2.03508 6.54222 2.16785 6.4535C2.30063 6.36478 2.40411 6.23869 2.46522 6.09116C2.52633 5.94363 2.54232 5.78129 2.51116 5.62467C2.48001 5.46805 2.40312 5.32419 2.2902 5.21128C2.17729 5.09836 2.03342 5.02147 1.87681 4.99031C1.72019 4.95916 1.55785 4.97515 1.41032 5.03626C1.26279 5.09737 1.13669 5.20085 1.04798 5.33363C0.95926 5.4664 0.911908 5.6225 0.911908 5.78219C0.911908 5.99632 0.996972 6.20168 1.14839 6.35309C1.2998 6.50451 1.50516 6.58957 1.71929 6.58957Z" fill="#24C5DA"/>
</svg>
