<svg width="42" height="42" viewBox="0 0 42 42" fill="none" xmlns="http://www.w3.org/2000/svg">
<path d="M21 0C16.8466 0 12.7864 1.23163 9.333 3.53914C5.87957 5.84665 3.18795 9.1264 1.59851 12.9636C0.0090684 16.8009 -0.406802 21.0233 0.403488 25.0969C1.21378 29.1705 3.21383 32.9123 6.15074 35.8492C9.08764 38.7861 12.8295 40.7862 16.9031 41.5965C20.9767 42.4068 25.1991 41.9909 29.0363 40.4015C32.8736 38.812 36.1533 36.1204 38.4608 32.667C40.7684 29.2135 42 25.1534 42 21C42 15.4305 39.7875 10.089 35.8492 6.15076C31.911 2.21249 26.5695 0 21 0V0ZM31.4585 14.6447C30.9622 15.3904 30.3557 16.0565 29.6597 16.6204C29.572 16.6935 29.5017 16.7853 29.4539 16.889C29.4061 16.9927 29.382 17.1058 29.3834 17.22V17.2891C29.3753 18.7865 29.1002 20.2706 28.571 21.6714C28.0258 23.1418 27.2157 24.4997 26.1809 25.678C24.7903 27.2611 23.0015 28.4431 21 29.1016C19.6848 29.5284 18.3098 29.7421 16.9271 29.7343C14.7335 29.7341 12.5791 29.1535 10.6823 28.0516C10.6144 28.0129 10.5609 27.9532 10.53 27.8814C10.499 27.8096 10.4924 27.7296 10.511 27.6537C10.5302 27.579 10.5737 27.5128 10.6348 27.4657C10.6959 27.4187 10.771 27.3934 10.8481 27.3939H11.3731C13.04 27.3969 14.6698 26.9023 16.0539 25.9737C15.2294 25.8391 14.4578 25.4798 13.8241 24.9353C13.1904 24.3908 12.7191 23.6821 12.4618 22.8872C12.4487 22.8474 12.4463 22.8049 12.4549 22.7638C12.4635 22.7228 12.4828 22.6848 12.5109 22.6536C12.539 22.6225 12.5748 22.5993 12.6147 22.5865C12.6546 22.5736 12.6972 22.5716 12.7381 22.5805C12.9896 22.6278 13.2449 22.6519 13.5008 22.6524H13.5975C12.8003 22.2865 12.1263 21.6974 11.657 20.9564C11.1876 20.2154 10.9432 19.3543 10.9531 18.4772C10.9534 18.4362 10.9643 18.3959 10.9848 18.3604C11.0053 18.3248 11.0346 18.2951 11.0699 18.2743C11.1053 18.2534 11.1454 18.242 11.1864 18.2413C11.2275 18.2405 11.268 18.2504 11.3041 18.27C11.6282 18.451 11.976 18.5858 12.3375 18.6707C11.6237 17.964 11.1646 17.0406 11.0321 16.045C10.8996 15.0494 11.1012 14.0379 11.6052 13.1692C11.6246 13.136 11.6517 13.108 11.6842 13.0876C11.7168 13.0672 11.7538 13.0549 11.7921 13.0519C11.8304 13.0489 11.8688 13.0553 11.9042 13.0704C11.9395 13.0856 11.9706 13.109 11.9948 13.1388C12.9938 14.3732 14.2301 15.3948 15.6307 16.1432C17.0312 16.8916 18.5676 17.3517 20.1489 17.4963H20.171C20.1943 17.4956 20.2171 17.4902 20.2382 17.4805C20.2593 17.4707 20.2782 17.4567 20.2937 17.4394C20.3092 17.422 20.321 17.4017 20.3284 17.3797C20.3359 17.3577 20.3387 17.3344 20.3368 17.3112C20.2753 16.7566 20.3108 16.1956 20.4418 15.6533C20.6201 14.9161 20.9861 14.2376 21.5041 13.6837C22.0222 13.1298 22.6748 12.7193 23.3984 12.4922C23.8627 12.3472 24.3461 12.2727 24.8325 12.2712C25.9353 12.2699 27.0006 12.6718 27.8277 13.4013C27.9349 13.4972 28.0736 13.5503 28.2173 13.5505C28.264 13.5495 28.3104 13.543 28.3555 13.5312C29.1322 13.3346 29.8766 13.0275 30.566 12.6193C30.6073 12.5939 30.6553 12.5819 30.7037 12.5848C30.752 12.5878 30.7982 12.6056 30.8361 12.6358C30.8739 12.6661 30.9014 12.7073 30.9149 12.7538C30.9284 12.8003 30.9272 12.8499 30.9114 12.8957C30.6815 13.619 30.2717 14.2722 29.7205 14.7939C30.2174 14.6768 30.7022 14.5131 31.1684 14.3049C31.2141 14.2877 31.264 14.285 31.3113 14.2972C31.3586 14.3094 31.401 14.3359 31.4327 14.3731C31.4644 14.4102 31.4839 14.4562 31.4885 14.5048C31.4931 14.5534 31.4827 14.6023 31.4585 14.6447Z" fill="#C4C4C4"/>
</svg>
