<svg width="42" height="42" viewBox="0 0 42 42" fill="none" xmlns="http://www.w3.org/2000/svg">
<path d="M21 0C16.8466 0 12.7864 1.23163 9.333 3.53914C5.87957 5.84665 3.18795 9.1264 1.59851 12.9636C0.0090684 16.8009 -0.406802 21.0233 0.403488 25.0969C1.21378 29.1705 3.21383 32.9123 6.15074 35.8492C9.08764 38.7861 12.8295 40.7862 16.9031 41.5965C20.9767 42.4068 25.1991 41.9909 29.0363 40.4015C32.8736 38.812 36.1533 36.1204 38.4608 32.667C40.7684 29.2135 42 25.1534 42 21C42 15.4305 39.7875 10.089 35.8492 6.15076C31.911 2.21249 26.5695 0 21 0V0ZM31.0081 26.0538C30.5881 27.3442 29.1983 28.1289 27.9189 28.3086C23.3193 28.7976 18.6807 28.7976 14.081 28.3086C12.8017 28.1289 11.4118 27.3442 10.9918 26.0538C10.337 22.7174 10.337 19.2854 10.9918 15.9489C11.4118 14.6447 12.8017 13.8738 14.0921 13.6942C18.6918 13.2051 23.3303 13.2051 27.93 13.6942C29.2093 13.8738 30.5992 14.6558 31.0192 15.9489C31.6704 19.2861 31.6666 22.7181 31.0081 26.0538Z" fill="#C4C4C4"/>
</svg>
